<svg id="Layer_1" data-name="Layer 1" xmlns="http://www.w3.org/2000/svg" viewBox="0 0 124.48 81.41"><defs><style>.cls-1,.cls-2,.cls-3{fill:#295b74;stroke:#fff;stroke-miterlimit:10;}.cls-1{stroke-width:0.75px;}.cls-2{stroke-width:0.25px;}</style></defs><path class="cls-1" d="M124.18,97.38c-3.19,5.3-16.51,28-10,34.78,1.06,1.11,2.36,1.5,7.66,2.17,15.79,2,23.66,3.16,26.6.44,5.35-5,1.61-20.8-10-37.84" transform="translate(-42.37 -56.32)"/><path class="cls-1" d="M127.18,72.31a17.31,17.31,0,0,0-6.37,3.57c-3.38,3-7.07,8.69-5.84,13.4,2,7.56,16.52,12.26,25.56,6.56,4.8-3,9.07-9.65,7.24-15.61C145.51,72.83,134.9,69.86,127.18,72.31Z" transform="translate(-42.37 -56.32)"/><path class="cls-1" d="M121.94,74.25c-.42-.2-.47-.8-.51-3.45-.06-3.47,0-3.82.29-3.94.59-.27,1.59.82,3.15,2.54s1.61,2.32,1.53,2.55-.4.44-2,1.28C122.48,74.19,122.24,74.4,121.94,74.25Z" transform="translate(-42.37 -56.32)"/><path class="cls-1" d="M143.89,74.25c.42-.2.47-.8.51-3.45.06-3.47,0-3.82-.29-3.94-.59-.27-1.59.82-3.15,2.54s-1.61,2.32-1.53,2.55.4.44,2,1.28C143.35,74.19,143.59,74.4,143.89,74.25Z" transform="translate(-42.37 -56.32)"/><path class="cls-1" d="M129.72,84.33a1.13,1.13,0,0,0,1.28,1c.72-.13,1.07-1,.89-1.28C131.62,83.59,129.86,83.81,129.72,84.33Z" transform="translate(-42.37 -56.32)"/><line class="cls-2" x1="91.83" y1="27.48" x2="98.08" y2="25.71"/><line class="cls-2" x1="91.44" y1="29.8" x2="97.03" y2="33.25"/><line class="cls-2" x1="93.36" y1="29.05" x2="96.42" y2="29.05"/><line class="cls-2" x1="84.49" y1="26.97" x2="78.23" y2="25.2"/><line class="cls-2" x1="84.87" y1="29.29" x2="79.28" y2="32.73"/><line class="cls-2" x1="82.96" y1="28.53" x2="79.89" y2="28.53"/><path class="cls-1" d="M150,122.35a12.09,12.09,0,0,0,7.53.26c1.38-.42,4.09-1.25,5.11-3.58s-.18-4.82-1.15-6.89c-1.6-3.41-3.05-3.56-4.6-7.41a10.06,10.06,0,0,1-.73-4.49c.08-1,.22-2.44,1.24-3a2,2,0,0,1,1.94-.06,2.22,2.22,0,0,1,1,1.81c.05.83-.34,1.23-.61,2-.57,1.56,0,3.11.51,4.47.3.8.54,1.14,2.3,3.7,2.63,3.83,2.81,4.11,3.06,4.73a8.18,8.18,0,0,1,.77,5.1,8.06,8.06,0,0,1-3.7,4.73c-2.1,1.4-4.17,1.64-6.56,1.92a24.36,24.36,0,0,1-5.33,0" transform="translate(-42.37 -56.32)"/><path class="cls-1" d="M61.84,86.12a90.77,90.77,0,0,0-4,18.07c-.3,2.62-3.31,29.42,5.34,32.41a7.59,7.59,0,0,0,2.32.22c13.55.51,18.17.9,27,0a7.3,7.3,0,0,0,2.09-.34c8.12-3.2,4.7-27.56,4.06-32.07a98.1,98.1,0,0,0-4.64-19" transform="translate(-42.37 -56.32)"/><path class="cls-1" d="M64.65,61.39c-1.25.79-8.84,5.6-8.8,13.23,0,6.16,5.06,10.33,6.65,11.66,7.88,6.56,23.36,9.54,30.69.68,4.19-5,5-13.06,1.76-19.2-5.17-9.9-17.86-9.55-19.55-9.51A20.91,20.91,0,0,0,64.65,61.39Z" transform="translate(-42.37 -56.32)"/><path class="cls-2" d="M77.17,72.16C75.24,74.3,71,79.4,70.53,84.41A3.05,3.05,0,0,0,71,86.84c1.79,2,7.25-.75,7.53-.89" transform="translate(-42.37 -56.32)"/><path class="cls-2" d="M80,72.25c1.92,2.14,6.15,7.24,6.63,12.25a3.05,3.05,0,0,1-.51,2.43c-1.79,1.95-7.25-.75-7.53-.9" transform="translate(-42.37 -56.32)"/><line class="cls-2" x1="36.21" y1="26.69" x2="36.21" y2="29.62"/><path class="cls-3" d="M76.41,80.77c-.17.56.89,1.8,2.28,1.59s1.92-1.49,1.6-2C79.8,79.6,76.65,79.94,76.41,80.77Z" transform="translate(-42.37 -56.32)"/><path class="cls-1" d="M57.49,123c-3.6-1.1-7.84-3.09-9.3-6.9-2.44-6.33,4.31-13.71,3.28-14.44s-8,4.22-8.68,11.53c-.61,6.62,4.33,11.42,5.53,12.5a17.7,17.7,0,0,0,10.23,4.41" transform="translate(-42.37 -56.32)"/><path class="cls-1" d="M56.19,71.8a9.72,9.72,0,0,0-2.13,2.94c-2.08,4.54.75,8.58-.89,9.83C51.36,86,46.4,84.27,44.74,81c-3-5.92,5.81-15.12,8.81-18.26,5-5.22,7.85-5.87,9.19-6a12.06,12.06,0,0,1,7.7,2.17" transform="translate(-42.37 -56.32)"/><path class="cls-1" d="M96,70.34a11.17,11.17,0,0,1,3.37,4.4c1.89,4.66-.81,8.54.89,9.83s6.77-.3,8.42-3.57c3-5.92-5.8-15.12-8.8-18.26-5-5.25-7.9-5.87-9.2-6A12.16,12.16,0,0,0,82.86,59" transform="translate(-42.37 -56.32)"/></svg>